<?xml version='1.0' encoding='UTF-8' standalone='no'?>
<svg
  xmlns:dc="http://purl.org/dc/elements/1.1/"
  xmlns:cc="http://creativecommons.org/ns#"
  xmlns:rdf="http://www.w3.org/1999/02/22-rdf-syntax-ns#"
  xmlns:svg="http://www.w3.org/2000/svg"
  xmlns="http://www.w3.org/2000/svg"
  enable-background="new 0 0 241.818 159.695"
  y="0px"
  id="Layer_1"
  version="1.1"
  viewBox="0 0 3356.47 2214.709"
  width="3.3564689in"
  x="0px"
  height="2.2147083in">
  <metadata
    id="metadata52">
    <rdf:RDF>
      <cc:Work
        rdf:about="">
        <dc:format>image/svg+xml</dc:format>
        <dc:type
          rdf:resource="http://purl.org/dc/dcmitype/StillImage"
        />
        <dc:title/>
      </cc:Work>
    </rdf:RDF>
  </metadata>
  <defs
    id="defs50"
  />
  <desc
    id="desc2">
    <referenceFile>raspberry-pi-4B_1_pcb.svg</referenceFile>
  </desc>
  <g
    id="silkscreen">
    <path
      d="M 3233.3588,5 H 123.11104 C 58.13885,5 5,58.152098 5,123.10936 V 2091.5983 c 0,64.9713 53.13885,118.1108 118.11104,118.1108 H 3233.3588 c 64.9723,0 118.1111,-53.1395 118.1111,-118.1108 V 123.10936 C 3351.4699,58.152098 3298.3311,5 3233.3588,5 Z M 142.79157,2126.0698 c -29.88886,0 -54.124962,-24.221 -54.124962,-54.1384 0,-29.8878 24.236102,-54.1115 54.124962,-54.1115 29.87498,0 54.12497,24.2096 54.12497,54.1115 0.0139,29.9034 -24.2361,54.1384 -54.12497,54.1384 z m 0,-1929.1398 c -29.88886,0 -54.124962,-24.2364 -54.124962,-54.13832 0,-29.8766 24.236102,-54.111594 54.124962,-54.111594 29.87498,0 54.12497,24.234994 54.12497,54.111594 0.0139,29.90192 -24.2361,54.13832 -54.12497,54.13832 z M 2426.29,2126.0698 c -29.875,0 -54.125,-24.221 -54.125,-54.1384 0,-29.8878 24.25,-54.1115 54.125,-54.1115 29.8889,0 54.111,24.2096 54.111,54.1115 0,29.9034 -24.2221,54.1384 -54.111,54.1384 z m 0,-1929.1398 c -29.875,0 -54.125,-24.2364 -54.125,-54.13832 0,-29.8766 24.25,-54.111594 54.125,-54.111594 29.8889,0 54.111,24.234994 54.111,54.111594 0,29.90192 -24.2221,54.13832 -54.111,54.13832 z"
      stroke-miterlimit="10"
      id="path56"
      fill="none"
      stroke="#000000"
      stroke-width="10"
    />
  </g>
  <g
    id="copper1">
    <g
      id="copper0">
      <path
        id="path153"
        d="m 533.00017,1352.7087 c 15.99645,0 29.00001,11.6 29.00001,26 v 52 c 0,14.4001 -13.00356,26.0001 -29.00001,26.0001 v 0 c -15.99644,0 -29.00001,-11.6 -29.00001,-26.0001 v -53 c 0.60065,-14 13.41638,-25 29.00001,-25 z"
        fill="#f7bd13"
        stroke="none"
        stroke-width="0"
      />
      <path
        d="m 433.00014,1352.7087 c 15.99645,0 29.00001,11.6 29.00001,26 v 52 c 0,14.4001 -13.00356,26.0001 -29.00001,26.0001 v 0 c -15.99644,0 -29.00001,-11.6 -29.00001,-26.0001 v -53 c 0.60065,-14 13.41638,-25 29.00001,-25 z"
        id="path151"
        fill="#f7bd13"
        stroke="none"
        stroke-width="0"
      />
      <path
        id="path147"
        d="m 333.00011,1352.2504 c 15.99645,0 29.00001,11.6 29.00001,26 v 52 c 0,14.4001 -13.00356,26.0001 -29.00001,26.0001 v 0 c -15.99644,0 -29.00001,-11.6 -29.00001,-26.0001 v -53 c 0.60065,-14 13.41638,-25 29.00001,-25 z"
        fill="#f7bd13"
        stroke="none"
        stroke-width="0"
      />
      <path
        d="m 2475.0008,405.50004 c 15.9965,0 29,11.6 29,26.00001 v 51.99999 c 0,14.4001 -13.0035,26.00012 -29,26.00012 v 0 c -15.9964,0 -29,-11.60002 -29,-26.00012 v -52.99999 c 0.6007,-14.00001 13.4164,-25.00001 29,-25.00001 z"
        id="path143"
        fill="#f7bd13"
        stroke="none"
        stroke-width="0"
      />
      <path
        id="path145"
        d="m 2375.0945,405.50004 c 15.9965,0 29,11.6 29,26.00001 v 51.99999 c 0,14.4001 -13.0035,26.00012 -29,26.00012 v 0 c -15.9964,0 -29,-11.60002 -29,-26.00012 v -52.99999 c 0.6007,-14.00001 13.4164,-25.00001 29,-25.00001 z"
        fill="#f7bd13"
        stroke="none"
        stroke-width="0"
      />
      <path
        d="m 2375.0945,263.70833 c 15.9965,0 29,11.6 29,26.00001 v 51.99999 c 0,14.4001 -13.0035,26.00012 -29,26.00012 v 0 c -15.9964,0 -29,-11.60002 -29,-26.00012 v -52.99999 c 0.6007,-14.00001 13.4164,-25.00001 29,-25.00001 z"
        id="path139"
        fill="#f7bd13"
        stroke="none"
        stroke-width="0"
      />
      <path
        id="path141"
        d="m 2475.0008,263.70833 c 15.9965,0 29,11.6 29,26.00001 v 51.99999 c 0,14.4001 -13.0035,26.00012 -29,26.00012 v 0 c -15.9964,0 -29,-11.60002 -29,-26.00012 v -52.99999 c 0.6007,-14.00001 13.4164,-25.00001 29,-25.00001 z"
        fill="#f7bd13"
        stroke="none"
        stroke-width="0"
      />
      <path
        id="path137"
        d="m 2233.0007,163.7083 c 15.9965,0 29,11.6 29,26.00001 v 51.99999 c 0,14.4001 -13.0035,26.00012 -29,26.00012 v 0 c -15.9964,0 -29,-11.60002 -29,-26.00012 v -52.99999 c 0.6007,-14.00001 13.4164,-25.00001 29,-25.00001 z"
        fill="#f7bd13"
        stroke="none"
        stroke-width="0"
      />
      <path
        d="m 2133.0007,163.7083 c 15.9965,0 29,11.6 29,26.00001 v 51.99999 c 0,14.4001 -13.0035,26.00012 -29,26.00012 v 0 c -15.9964,0 -29,-11.60002 -29,-26.00012 v -52.99999 c 0.6007,-14.00001 13.4164,-25.00001 29,-25.00001 z"
        id="path135"
        fill="#f7bd13"
        stroke="none"
        stroke-width="0"
      />
      <path
        id="path133"
        d="m 2033.0007,163.7083 c 15.9965,0 29,11.6 29,26.00001 v 51.99999 c 0,14.4001 -13.0035,26.00012 -29,26.00012 v 0 c -15.9964,0 -29,-11.60002 -29,-26.00012 v -52.99999 c 0.6007,-14.00001 13.4164,-25.00001 29,-25.00001 z"
        fill="#f7bd13"
        stroke="none"
        stroke-width="0"
      />
      <path
        d="m 1933.0006,163.7083 c 15.9965,0 29,11.6 29,26.00001 v 51.99999 c 0,14.4001 -13.0035,26.00012 -29,26.00012 v 0 c -15.9964,0 -29,-11.60002 -29,-26.00012 v -52.99999 c 0.6007,-14.00001 13.4164,-25.00001 29,-25.00001 z"
        id="path131"
        fill="#f7bd13"
        stroke="none"
        stroke-width="0"
      />
      <path
        id="path129"
        d="m 1833.0006,163.7083 c 15.9965,0 29,11.6 29,26.00001 v 51.99999 c 0,14.4001 -13.0035,26.00012 -29,26.00012 v 0 c -15.9964,0 -29,-11.60002 -29,-26.00012 v -52.99999 c 0.6007,-14.00001 13.4164,-25.00001 29,-25.00001 z"
        fill="#f7bd13"
        stroke="none"
        stroke-width="0"
      />
      <path
        d="m 1733.0006,163.7083 c 15.9965,0 29,11.6 29,26.00001 v 51.99999 c 0,14.4001 -13.0035,26.00012 -29,26.00012 v 0 c -15.9964,0 -29,-11.60002 -29,-26.00012 v -52.99999 c 0.6007,-14.00001 13.4164,-25.00001 29,-25.00001 z"
        id="path127"
        fill="#f7bd13"
        stroke="none"
        stroke-width="0"
      />
      <path
        id="path125"
        d="m 1633.0005,163.7083 c 15.9965,0 29,11.6 29,26.00001 v 51.99999 c 0,14.4001 -13.0035,26.00012 -29,26.00012 v 0 c -15.9964,0 -29,-11.60002 -29,-26.00012 v -52.99999 c 0.6007,-14.00001 13.4164,-25.00001 29,-25.00001 z"
        fill="#f7bd13"
        stroke="none"
        stroke-width="0"
      />
      <path
        d="m 1533.0005,163.7083 c 15.9965,0 29,11.6 29,26.00001 v 51.99999 c 0,14.4001 -13.0035,26.00012 -29,26.00012 v 0 c -15.9964,0 -29,-11.60002 -29,-26.00012 v -52.99999 c 0.6007,-14.00001 13.4164,-25.00001 29,-25.00001 z"
        id="path123"
        fill="#f7bd13"
        stroke="none"
        stroke-width="0"
      />
      <path
        id="path121"
        d="m 1433.0005,163.7083 c 15.9965,0 29,11.6 29,26.00001 v 51.99999 c 0,14.4001 -13.0035,26.00012 -29,26.00012 v 0 c -15.9964,0 -29,-11.60002 -29,-26.00012 v -52.99999 c 0.6007,-14.00001 13.4164,-25.00001 29,-25.00001 z"
        fill="#f7bd13"
        stroke="none"
        stroke-width="0"
      />
      <path
        d="m 1333.0004,163.7083 c 15.9965,0 29,11.6 29,26.00001 v 51.99999 c 0,14.4001 -13.0035,26.00012 -29,26.00012 v 0 c -15.9964,0 -29,-11.60002 -29,-26.00012 v -52.99999 c 0.6007,-14.00001 13.4164,-25.00001 29,-25.00001 z"
        id="path119"
        fill="#f7bd13"
        stroke="none"
        stroke-width="0"
      />
      <path
        id="path117"
        d="m 1233.0004,163.7083 c 15.9965,0 29,11.6 29,26.00001 v 51.99999 c 0,14.4001 -13.0035,26.00012 -29,26.00012 v 0 c -15.9964,0 -29,-11.60002 -29,-26.00012 v -52.99999 c 0.6007,-14.00001 13.4164,-25.00001 29,-25.00001 z"
        fill="#f7bd13"
        stroke="none"
        stroke-width="0"
      />
      <path
        d="m 1133.0004,163.7083 c 15.9965,0 29,11.6 29,26.00001 v 51.99999 c 0,14.4001 -13.0035,26.00012 -29,26.00012 v 0 c -15.9964,0 -29,-11.60002 -29,-26.00012 v -52.99999 c 0.6007,-14.00001 13.4164,-25.00001 29,-25.00001 z"
        id="path115"
        fill="#f7bd13"
        stroke="none"
        stroke-width="0"
      />
      <path
        id="path113"
        d="m 1033.0003,163.7083 c 15.9965,0 29,11.6 29,26.00001 v 51.99999 c 0,14.4001 -13.0035,26.00012 -29,26.00012 v 0 c -15.9964,0 -29,-11.60002 -29,-26.00012 v -52.99999 c 0.6007,-14.00001 13.4164,-25.00001 29,-25.00001 z"
        fill="#f7bd13"
        stroke="none"
        stroke-width="0"
      />
      <path
        d="m 933.0003,163.7083 c 15.99645,0 29.00001,11.6 29.00001,26.00001 v 51.99999 c 0,14.4001 -13.00356,26.00012 -29.00001,26.00012 v 0 c -15.99644,0 -29.00001,-11.60002 -29.00001,-26.00012 v -52.99999 c 0.60065,-14.00001 13.41638,-25.00001 29.00001,-25.00001 z"
        id="path111"
        fill="#f7bd13"
        stroke="none"
        stroke-width="0"
      />
      <path
        id="path109"
        d="m 833.00027,163.7083 c 15.99645,0 29.00001,11.6 29.00001,26.00001 v 51.99999 c 0,14.4001 -13.00356,26.00012 -29.00001,26.00012 v 0 c -15.99644,0 -29.00001,-11.60002 -29.00001,-26.00012 v -52.99999 c 0.60065,-14.00001 13.41638,-25.00001 29.00001,-25.00001 z"
        fill="#f7bd13"
        stroke="none"
        stroke-width="0"
      />
      <path
        d="m 733.00024,163.7083 c 15.99645,0 29.00001,11.6 29.00001,26.00001 v 51.99999 c 0,14.4001 -13.00356,26.00012 -29.00001,26.00012 v 0 c -15.99644,0 -29.00001,-11.60002 -29.00001,-26.00012 v -52.99999 c 0.60065,-14.00001 13.41638,-25.00001 29.00001,-25.00001 z"
        id="path107"
        fill="#f7bd13"
        stroke="none"
        stroke-width="0"
      />
      <path
        id="path105"
        d="m 633.00021,163.7083 c 15.99645,0 29.00001,11.6 29.00001,26.00001 v 51.99999 c 0,14.4001 -13.00356,26.00012 -29.00001,26.00012 v 0 c -15.99644,0 -29.00001,-11.60002 -29.00001,-26.00012 v -52.99999 c 0.60065,-14.00001 13.41638,-25.00001 29.00001,-25.00001 z"
        fill="#f7bd13"
        stroke="none"
        stroke-width="0"
      />
      <path
        d="m 533.00017,163.7083 c 15.99645,0 29.00001,11.6 29.00001,26.00001 v 51.99999 c 0,14.4001 -13.00356,26.00012 -29.00001,26.00012 v 0 c -15.99644,0 -29.00001,-11.60002 -29.00001,-26.00012 v -52.99999 c 0.60065,-14.00001 13.41638,-25.00001 29.00001,-25.00001 z"
        id="path103"
        fill="#f7bd13"
        stroke="none"
        stroke-width="0"
      />
      <path
        id="path101"
        d="m 433.00014,163.7083 c 15.99645,0 29.00001,11.6 29.00001,26.00001 v 51.99999 c 0,14.4001 -13.00356,26.00012 -29.00001,26.00012 v 0 c -15.99644,0 -29.00001,-11.60002 -29.00001,-26.00012 v -52.99999 c 0.60065,-14.00001 13.41638,-25.00001 29.00001,-25.00001 z"
        fill="#f7bd13"
        stroke="none"
        stroke-width="0"
      />
      <path
        d="m 333.37511,163.8333 c 15.99645,0 29.00001,11.6 29.00001,26.00001 v 51.99999 c 0,14.4001 -13.00356,26.00012 -29.00001,26.00012 v 0 c -15.99644,0 -29.00001,-11.60002 -29.00001,-26.00012 v -52.99999 c 0.60065,-14.00001 13.41638,-25.00001 29.00001,-25.00001 z"
        id="path99"
        fill="#f7bd13"
        stroke="none"
        stroke-width="0"
      />
      <path
        d="m 2233.0007,18.708244 c 15.9965,0 29,11.600003 29,26.000018 v 51.99999 c 0,14.400098 -13.0035,26.000118 -29,26.000118 v 0 c -15.9964,0 -29,-11.60002 -29,-26.000118 V 43.708258 c 0.6007,-14.000011 13.4164,-25.000014 29,-25.000014 z"
        id="path95"
        fill="#f7bd13"
        stroke="none"
        stroke-width="0"
      />
      <path
        id="path93"
        d="m 2133.0007,18.708244 c 15.9965,0 29,11.600003 29,26.000018 v 51.99999 c 0,14.400098 -13.0035,26.000118 -29,26.000118 v 0 c -15.9964,0 -29,-11.60002 -29,-26.000118 V 43.708258 c 0.6007,-14.000011 13.4164,-25.000014 29,-25.000014 z"
        fill="#f7bd13"
        stroke="none"
        stroke-width="0"
      />
      <path
        d="m 2033.0007,18.708244 c 15.9965,0 29,11.600003 29,26.000018 v 51.99999 c 0,14.400098 -13.0035,26.000118 -29,26.000118 v 0 c -15.9964,0 -29,-11.60002 -29,-26.000118 V 43.708258 c 0.6007,-14.000011 13.4164,-25.000014 29,-25.000014 z"
        id="path91"
        fill="#f7bd13"
        stroke="none"
        stroke-width="0"
      />
      <path
        id="path89"
        d="m 1933.0006,18.708244 c 15.9965,0 29,11.600003 29,26.000018 v 51.99999 c 0,14.400098 -13.0035,26.000118 -29,26.000118 v 0 c -15.9964,0 -29,-11.60002 -29,-26.000118 V 43.708258 c 0.6007,-14.000011 13.4164,-25.000014 29,-25.000014 z"
        fill="#f7bd13"
        stroke="none"
        stroke-width="0"
      />
      <path
        d="m 1833.0006,18.708244 c 15.9965,0 29,11.600003 29,26.000018 v 51.99999 c 0,14.400098 -13.0035,26.000118 -29,26.000118 v 0 c -15.9964,0 -29,-11.60002 -29,-26.000118 V 43.708258 c 0.6007,-14.000011 13.4164,-25.000014 29,-25.000014 z"
        id="path87"
        fill="#f7bd13"
        stroke="none"
        stroke-width="0"
      />
      <path
        id="path85"
        d="m 1733.0006,18.708244 c 15.9965,0 29,11.600003 29,26.000018 v 51.99999 c 0,14.400098 -13.0035,26.000118 -29,26.000118 v 0 c -15.9964,0 -29,-11.60002 -29,-26.000118 V 43.708258 c 0.6007,-14.000011 13.4164,-25.000014 29,-25.000014 z"
        fill="#f7bd13"
        stroke="none"
        stroke-width="0"
      />
      <path
        d="m 1633.0005,18.708244 c 15.9965,0 29,11.600003 29,26.000018 v 51.99999 c 0,14.400098 -13.0035,26.000118 -29,26.000118 v 0 c -15.9964,0 -29,-11.60002 -29,-26.000118 V 43.708258 c 0.6007,-14.000011 13.4164,-25.000014 29,-25.000014 z"
        id="path83"
        fill="#f7bd13"
        stroke="none"
        stroke-width="0"
      />
      <path
        id="path81"
        d="m 1533.0005,18.708244 c 15.9965,0 29,11.600003 29,26.000018 v 51.99999 c 0,14.400098 -13.0035,26.000118 -29,26.000118 v 0 c -15.9964,0 -29,-11.60002 -29,-26.000118 V 43.708258 c 0.6007,-14.000011 13.4164,-25.000014 29,-25.000014 z"
        fill="#f7bd13"
        stroke="none"
        stroke-width="0"
      />
      <path
        d="m 1433.0005,18.708244 c 15.9965,0 29,11.600003 29,26.000018 v 51.99999 c 0,14.400098 -13.0035,26.000118 -29,26.000118 v 0 c -15.9964,0 -29,-11.60002 -29,-26.000118 V 43.708258 c 0.6007,-14.000011 13.4164,-25.000014 29,-25.000014 z"
        id="path79"
        fill="#f7bd13"
        stroke="none"
        stroke-width="0"
      />
      <path
        id="path77"
        d="m 1333.0004,18.708244 c 15.9965,0 29,11.600003 29,26.000018 v 51.99999 c 0,14.400098 -13.0035,26.000118 -29,26.000118 v 0 c -15.9964,0 -29,-11.60002 -29,-26.000118 V 43.708258 c 0.6007,-14.000011 13.4164,-25.000014 29,-25.000014 z"
        fill="#f7bd13"
        stroke="none"
        stroke-width="0"
      />
      <path
        d="m 1233.0004,18.708244 c 15.9965,0 29,11.600003 29,26.000018 v 51.99999 c 0,14.400098 -13.0035,26.000118 -29,26.000118 v 0 c -15.9964,0 -29,-11.60002 -29,-26.000118 V 43.708258 c 0.6007,-14.000011 13.4164,-25.000014 29,-25.000014 z"
        id="path75"
        fill="#f7bd13"
        stroke="none"
        stroke-width="0"
      />
      <path
        id="path73"
        d="m 1133.0004,18.708244 c 15.9965,0 29,11.600003 29,26.000018 v 51.99999 c 0,14.400098 -13.0035,26.000118 -29,26.000118 v 0 c -15.9964,0 -29,-11.60002 -29,-26.000118 V 43.708258 c 0.6007,-14.000011 13.4164,-25.000014 29,-25.000014 z"
        fill="#f7bd13"
        stroke="none"
        stroke-width="0"
      />
      <path
        d="m 1033.0003,18.708244 c 15.9965,0 29,11.600003 29,26.000018 v 51.99999 c 0,14.400098 -13.0035,26.000118 -29,26.000118 v 0 c -15.9964,0 -29,-11.60002 -29,-26.000118 V 43.708258 c 0.6007,-14.000011 13.4164,-25.000014 29,-25.000014 z"
        id="path71"
        fill="#f7bd13"
        stroke="none"
        stroke-width="0"
      />
      <path
        id="path69"
        d="m 933.0003,18.708244 c 15.99645,0 29.00001,11.600003 29.00001,26.000018 v 51.99999 c 0,14.400098 -13.00356,26.000118 -29.00001,26.000118 v 0 c -15.99644,0 -29.00001,-11.60002 -29.00001,-26.000118 V 43.708258 c 0.60065,-14.000011 13.41638,-25.000014 29.00001,-25.000014 z"
        fill="#f7bd13"
        stroke="none"
        stroke-width="0"
      />
      <path
        d="m 833.00027,18.708244 c 15.99645,0 29.00001,11.600003 29.00001,26.000018 v 51.99999 c 0,14.400098 -13.00356,26.000118 -29.00001,26.000118 v 0 c -15.99644,0 -29.00001,-11.60002 -29.00001,-26.000118 V 43.708258 c 0.60065,-14.000011 13.41638,-25.000014 29.00001,-25.000014 z"
        id="path67"
        fill="#f7bd13"
        stroke="none"
        stroke-width="0"
      />
      <path
        id="path65"
        d="m 733.00024,18.708244 c 15.99645,0 29.00001,11.600003 29.00001,26.000018 v 51.99999 c 0,14.400098 -13.00356,26.000118 -29.00001,26.000118 v 0 c -15.99644,0 -29.00001,-11.60002 -29.00001,-26.000118 V 43.708258 c 0.60065,-14.000011 13.41638,-25.000014 29.00001,-25.000014 z"
        fill="#f7bd13"
        stroke="none"
        stroke-width="0"
      />
      <path
        d="m 633.00021,18.708244 c 15.99645,0 29.00001,11.600003 29.00001,26.000018 v 51.99999 c 0,14.400098 -13.00356,26.000118 -29.00001,26.000118 v 0 c -15.99644,0 -29.00001,-11.60002 -29.00001,-26.000118 V 43.708258 c 0.60065,-14.000011 13.41638,-25.000014 29.00001,-25.000014 z"
        id="path63"
        fill="#f7bd13"
        stroke="none"
        stroke-width="0"
      />
      <path
        id="path61"
        d="m 533.00017,18.708244 c 15.99645,0 29.00001,11.600003 29.00001,26.000018 v 51.99999 c 0,14.400098 -13.00356,26.000118 -29.00001,26.000118 v 0 c -15.99644,0 -29.00001,-11.60002 -29.00001,-26.000118 V 43.708258 c 0.60065,-14.000011 13.41638,-25.000014 29.00001,-25.000014 z"
        fill="#f7bd13"
        stroke="none"
        stroke-width="0"
      />
      <path
        d="m 433.00014,18.708244 c 15.99645,0 29.00001,11.600003 29.00001,26.000018 v 51.99999 c 0,14.400098 -13.00356,26.000118 -29.00001,26.000118 v 0 c -15.99644,0 -29.00001,-11.60002 -29.00001,-26.000118 V 43.708258 c 0.60065,-14.000011 13.41638,-25.000014 29.00001,-25.000014 z"
        id="path59"
        fill="#f7bd13"
        stroke="none"
        stroke-width="0"
      />
      <path
        id="path44"
        d="m 333.37511,18.218656 c 15.99645,0 29.00001,11.600003 29.00001,26.000018 v 51.99999 c 0,14.400096 -13.00356,26.000116 -29.00001,26.000116 v 0 c -15.99644,0 -29.00001,-11.60002 -29.00001,-26.000116 V 43.21867 c 0.60065,-14.000011 13.41638,-25.000014 29.00001,-25.000014 z"
        fill="#f7bd13"
        stroke="none"
        stroke-width="0"
      />
      <circle
        r="24"
        id="connector0pin"
        cy="193.20839"
        cx="333.37506"
        fill="#ffffff"
        stroke="#ffbf00"
        stroke-width="10"
      />
      <circle
        r="24"
        id="connector1pin"
        cy="93.222054"
        cx="333.37506"
        fill="#ffffff"
        stroke="#ffbf00"
        stroke-width="10"
      />
      <circle
        r="24"
        id="connector2pin"
        cy="193.20839"
        cx="433.36105"
        fill="#ffffff"
        stroke="#ffbf00"
        stroke-width="10"
      />
      <circle
        r="24"
        id="connector3pin"
        cy="93.222054"
        cx="433.36105"
        fill="#ffffff"
        stroke="#ffbf00"
        stroke-width="10"
      />
      <circle
        r="24"
        id="connector4pin"
        cy="193.20839"
        cx="533.37482"
        fill="#ffffff"
        stroke="#ffbf00"
        stroke-width="10"
      />
      <circle
        r="24"
        id="connector5pin"
        cy="93.222054"
        cx="533.37482"
        fill="#ffffff"
        stroke="#ffbf00"
        stroke-width="10"
      />
      <circle
        r="24"
        id="connector6pin"
        cy="193.20839"
        cx="633.36072"
        fill="#ffffff"
        stroke="#ffbf00"
        stroke-width="10"
      />
      <circle
        r="24"
        id="connector7pin"
        cy="93.222054"
        cx="633.36072"
        fill="#ffffff"
        stroke="#ffbf00"
        stroke-width="10"
      />
      <circle
        r="24"
        id="connector8pin"
        cy="193.20839"
        cx="733.37445"
        fill="#ffffff"
        stroke="#ffbf00"
        stroke-width="10"
      />
      <circle
        r="24"
        id="connector9pin"
        cy="93.222054"
        cx="733.37445"
        fill="#ffffff"
        stroke="#ffbf00"
        stroke-width="10"
      />
      <circle
        r="24"
        id="connector10pin"
        cy="193.20839"
        cx="833.37427"
        fill="#ffffff"
        stroke="#ffbf00"
        stroke-width="10"
      />
      <circle
        r="24"
        id="connector11pin"
        cy="93.222054"
        cx="833.37427"
        fill="#ffffff"
        stroke="#ffbf00"
        stroke-width="10"
      />
      <circle
        r="24"
        id="connector12pin"
        cy="193.20839"
        cx="933.36029"
        fill="#ffffff"
        stroke="#ffbf00"
        stroke-width="10"
      />
      <circle
        r="24"
        id="connector13pin"
        cy="93.222054"
        cx="933.36029"
        fill="#ffffff"
        stroke="#ffbf00"
        stroke-width="10"
      />
      <circle
        r="24"
        id="connector14pin"
        cy="193.20839"
        cx="1033.374"
        fill="#ffffff"
        stroke="#ffbf00"
        stroke-width="10"
      />
      <circle
        r="24"
        id="connector15pin"
        cy="93.222054"
        cx="1033.374"
        fill="#ffffff"
        stroke="#ffbf00"
        stroke-width="10"
      />
      <circle
        r="24"
        id="connector16pin"
        cy="193.20839"
        cx="1133.3599"
        fill="#ffffff"
        stroke="#ffbf00"
        stroke-width="10"
      />
      <circle
        r="24"
        id="connector17pin"
        cy="93.222054"
        cx="1133.3599"
        fill="#ffffff"
        stroke="#ffbf00"
        stroke-width="10"
      />
      <circle
        r="24"
        id="connector18pin"
        cy="193.20839"
        cx="1233.3735"
        fill="#ffffff"
        stroke="#ffbf00"
        stroke-width="10"
      />
      <circle
        r="24"
        id="connector19pin"
        cy="93.222054"
        cx="1233.3735"
        fill="#ffffff"
        stroke="#ffbf00"
        stroke-width="10"
      />
      <circle
        r="24"
        id="connector20pin"
        cy="193.20839"
        cx="1333.3733"
        fill="#ffffff"
        stroke="#ffbf00"
        stroke-width="10"
      />
      <circle
        r="24"
        id="connector21pin"
        cy="93.222054"
        cx="1333.3733"
        fill="#ffffff"
        stroke="#ffbf00"
        stroke-width="10"
      />
      <circle
        r="24"
        id="connector22pin"
        cy="193.20839"
        cx="1433.3732"
        fill="#ffffff"
        stroke="#ffbf00"
        stroke-width="10"
      />
      <circle
        r="24"
        id="connector23pin"
        cy="93.222054"
        cx="1433.3732"
        fill="#ffffff"
        stroke="#ffbf00"
        stroke-width="10"
      />
      <circle
        r="24"
        id="connector24pin"
        cy="193.20839"
        cx="1533.373"
        fill="#ffffff"
        stroke="#ffbf00"
        stroke-width="10"
      />
      <circle
        r="24"
        id="connector25pin"
        cy="93.222054"
        cx="1533.373"
        fill="#ffffff"
        stroke="#ffbf00"
        stroke-width="10"
      />
      <circle
        r="24"
        id="connector26pin"
        cy="193.20839"
        cx="1633.359"
        fill="#ffffff"
        stroke="#ffbf00"
        stroke-width="10"
      />
      <circle
        r="24"
        id="connector27pin"
        cy="93.222054"
        cx="1633.359"
        fill="#ffffff"
        stroke="#ffbf00"
        stroke-width="10"
      />
      <circle
        r="24"
        id="connector28pin"
        cy="193.20839"
        cx="1733.3867"
        fill="#ffffff"
        stroke="#ffbf00"
        stroke-width="10"
      />
      <circle
        r="24"
        id="connector29pin"
        cy="93.222054"
        cx="1733.3867"
        fill="#ffffff"
        stroke="#ffbf00"
        stroke-width="10"
      />
      <circle
        r="24"
        id="connector30pin"
        cy="193.20839"
        cx="1833.3727"
        fill="#ffffff"
        stroke="#ffbf00"
        stroke-width="10"
      />
      <circle
        r="24"
        id="connector31pin"
        cy="93.222054"
        cx="1833.3727"
        fill="#ffffff"
        stroke="#ffbf00"
        stroke-width="10"
      />
      <circle
        r="24"
        id="connector32pin"
        cy="193.20839"
        cx="1933.3724"
        fill="#ffffff"
        stroke="#ffbf00"
        stroke-width="10"
      />
      <circle
        r="24"
        id="connector33pin"
        cy="93.222054"
        cx="1933.3724"
        fill="#ffffff"
        stroke="#ffbf00"
        stroke-width="10"
      />
      <circle
        r="24"
        id="connector34pin"
        cy="193.20839"
        cx="2033.3726"
        fill="#ffffff"
        stroke="#ffbf00"
        stroke-width="10"
      />
      <circle
        r="24"
        id="connector35pin"
        cy="93.222054"
        cx="2033.3726"
        fill="#ffffff"
        stroke="#ffbf00"
        stroke-width="10"
      />
      <circle
        r="24"
        id="connector36pin"
        cy="193.20839"
        cx="2133.3586"
        fill="#ffffff"
        stroke="#ffbf00"
        stroke-width="10"
      />
      <circle
        r="24"
        id="connector37pin"
        cy="93.222054"
        cx="2133.3586"
        fill="#ffffff"
        stroke="#ffbf00"
        stroke-width="10"
      />
      <circle
        r="24"
        id="connector38pin"
        cy="193.20839"
        cx="2233.3862"
        fill="#ffffff"
        stroke="#ffbf00"
        stroke-width="10"
      />
      <circle
        r="24"
        id="connector39pin"
        cy="93.222054"
        cx="2233.3862"
        fill="#ffffff"
        stroke="#ffbf00"
        stroke-width="10"
      />
      <circle
        cx="2475.1221"
        cy="434.81262"
        id="connector40pin"
        r="24"
        fill="#ffffff"
        stroke="#ffbf00"
        stroke-width="10"
      />
      <circle
        cx="2375.0945"
        cy="434.81262"
        id="connector41pin"
        r="24"
        fill="#ffffff"
        stroke="#ffbf00"
        stroke-width="10"
      />
      <circle
        cx="2475.1221"
        cy="334.8194"
        id="connector42pin"
        r="24"
        fill="#ffffff"
        stroke="#ffbf00"
        stroke-width="10"
      />
      <circle
        cx="2375.0945"
        cy="334.8194"
        id="connector43pin"
        r="24"
        fill="#ffffff"
        stroke="#ffbf00"
        stroke-width="10"
      />
      <circle
        cx="333.37506"
        cy="1403.6256"
        id="connector44pin"
        r="24"
        fill="#ffffff"
        stroke="#ffbf00"
        stroke-width="10"
      />
      <circle
        cx="433.36105"
        cy="1403.6256"
        id="connector45pin"
        r="24"
        fill="#ffffff"
        stroke="#ffbf00"
        stroke-width="10"
      />
      <circle
        cx="533.37482"
        cy="1403.6256"
        id="connector46pin"
        r="24"
        fill="#ffffff"
        stroke="#ffbf00"
        stroke-width="10"
      />
    </g>
  </g>
</svg>
