<?xml version='1.0' encoding='UTF-8' standalone='no'?>
<svg
  xmlns:dc="http://purl.org/dc/elements/1.1/"
  xmlns:cc="http://creativecommons.org/ns#"
  xmlns:rdf="http://www.w3.org/1999/02/22-rdf-syntax-ns#"
  xmlns:svg="http://www.w3.org/2000/svg"
  xmlns="http://www.w3.org/2000/svg"
  width="32.000031mm"
  height="32.000031mm"
  version="1.1"
  id="svg8"
  viewBox="0 0 1259.8442 1259.8442"
  gorn="0">
  <desc
    id="desc2">
    <referenceFile>EDDY_fixed_1_breadboard.svg</referenceFile>
  </desc>
  <defs
    id="defs2"
  />
  <metadata
    id="metadata5">
    <rdf:RDF>
      <cc:Work
        rdf:about="">
        <dc:format>image/svg+xml</dc:format>
        <dc:type
          rdf:resource="http://purl.org/dc/dcmitype/StillImage"
        />
        <dc:title/>
      </cc:Work>
    </rdf:RDF>
  </metadata>
  <g
    id="breadboard">
    <path
      gorn="0.3.0.0.0.0.0.0"
      id="background-rect"
      d="M 0,0 V 177.14395 H 177.16431 A 59.053512,59.054985 0 0 1 236.22587,236.20551 59.053512,59.054985 0 0 1 177.16431,295.26691 H 0 V 964.55669 H 177.16431 A 59.053512,59.054985 0 0 1 236.22587,1023.6183 59.053512,59.054985 0 0 1 177.16431,1082.6796 H 0 V 1259.8442 H 1259.8442 V 1082.6796 H 1082.6799 A 59.053512,59.054985 0 0 1 1023.6183,1023.6183 59.053512,59.054985 0 0 1 1082.6799,964.55669 H 1259.8442 V 295.26691 H 1082.6799 A 59.053512,59.054985 0 0 1 1023.6183,236.20551 59.053512,59.054985 0 0 1 1082.6799,177.14395 H 1259.8442 V 0 Z M 679.9098,118.08244 A 19.684996,19.684994 0 0 1 699.60374,137.77637 19.684996,19.684994 0 0 1 679.9098,157.44998 19.684996,19.684994 0 0 1 660.23615,137.77637 19.684996,19.684994 0 0 1 679.9098,118.08244 Z M 279.92695,118.10327 A 19.684996,19.684994 0 0 1 299.60058,137.79724 19.684996,19.684994 0 0 1 279.92695,157.47085 19.684996,19.684994 0 0 1 260.23299,137.79724 19.684996,19.684994 0 0 1 279.92695,118.10327 Z M 379.92266,118.10327 A 19.684996,19.684994 0 0 1 399.59629,137.79724 19.684996,19.684994 0 0 1 379.92266,157.47085 19.684996,19.684994 0 0 1 360.22869,137.79724 19.684996,19.684994 0 0 1 379.92266,118.10327 Z M 479.91839,118.10327 A 19.684996,19.684994 0 0 1 499.61233,137.79724 19.684996,19.684994 0 0 1 479.91839,157.47085 19.684996,19.684994 0 0 1 460.24473,137.79724 19.684996,19.684994 0 0 1 479.91839,118.10327 Z M 579.91408,118.10327 A 19.684996,19.684994 0 0 1 599.60805,137.79724 19.684996,19.684994 0 0 1 579.91408,157.47085 19.684996,19.684994 0 0 1 560.24046,137.79724 19.684996,19.684994 0 0 1 579.91408,118.10327 Z M 779.92584,118.10327 A 19.684996,19.684994 0 0 1 799.59946,137.79724 19.684996,19.684994 0 0 1 779.92584,157.47085 19.684996,19.684994 0 0 1 760.23187,137.79724 19.684996,19.684994 0 0 1 779.92584,118.10327 Z M 879.92157,118.10327 A 19.684996,19.684994 0 0 1 899.59519,137.79724 19.684996,19.684994 0 0 1 879.92157,157.47085 19.684996,19.684994 0 0 1 860.22759,137.79724 19.684996,19.684994 0 0 1 879.92157,118.10327 Z M 979.91725,118.10327 A 19.684996,19.684994 0 0 1 999.61122,137.79724 19.684996,19.684994 0 0 1 979.91725,157.47085 19.684996,19.684994 0 0 1 960.24363,137.79724 19.684996,19.684994 0 0 1 979.91725,118.10327 Z M 42.439686,410.23672 A 19.684996,19.684994 0 0 1 62.113308,429.93077 19.684996,19.684994 0 0 1 42.439686,449.60434 19.684996,19.684994 0 0 1 22.745718,429.93077 19.684996,19.684994 0 0 1 42.439686,410.23672 Z M 1217.3842,410.23672 A 19.684996,19.684994 0 0 1 1237.0782,429.9103 19.684996,19.684994 0 0 1 1217.3842,449.60434 19.684996,19.684994 0 0 1 1197.7106,429.9103 19.684996,19.684994 0 0 1 1217.3842,410.23672 Z M 42.439686,510.23255 A 19.684996,19.684994 0 0 1 62.113308,529.90613 19.684996,19.684994 0 0 1 42.439686,549.59978 19.684996,19.684994 0 0 1 22.745718,529.90613 19.684996,19.684994 0 0 1 42.439686,510.23255 Z M 1217.3842,510.23255 A 19.684996,19.684994 0 0 1 1237.0782,529.90613 19.684996,19.684994 0 0 1 1217.3842,549.59978 19.684996,19.684994 0 0 1 1197.7106,529.90613 19.684996,19.684994 0 0 1 1217.3842,510.23255 Z M 42.439686,610.22799 A 19.684996,19.684994 0 0 1 62.113308,629.92204 19.684996,19.684994 0 0 1 42.439686,649.61608 19.684996,19.684994 0 0 1 22.745718,629.92204 19.684996,19.684994 0 0 1 42.439686,610.22799 Z M 1217.3842,610.22799 A 19.684996,19.684994 0 0 1 1237.0782,629.92204 19.684996,19.684994 0 0 1 1217.3842,649.59561 19.684996,19.684994 0 0 1 1197.7106,629.92204 19.684996,19.684994 0 0 1 1217.3842,610.22799 Z M 42.439686,710.22382 A 19.684996,19.684994 0 0 1 62.133651,729.91787 19.684996,19.684994 0 0 1 42.439686,749.61152 19.684996,19.684994 0 0 1 22.766063,729.91787 19.684996,19.684994 0 0 1 42.439686,710.22382 Z M 1217.3842,710.22382 A 19.684996,19.684994 0 0 1 1237.0578,729.91787 19.684996,19.684994 0 0 1 1217.3842,749.59144 19.684996,19.684994 0 0 1 1197.6903,729.91787 19.684996,19.684994 0 0 1 1217.3842,710.22382 Z M 42.439686,810.23973 A 19.684996,19.684994 0 0 1 62.113308,829.93377 19.684996,19.684994 0 0 1 42.439686,849.60735 19.684996,19.684994 0 0 1 22.745718,829.93377 19.684996,19.684994 0 0 1 42.439686,810.23973 Z M 1217.3842,810.23973 A 19.684996,19.684994 0 0 1 1237.0782,829.9133 19.684996,19.684994 0 0 1 1217.3842,849.60735 19.684996,19.684994 0 0 1 1197.7106,829.9133 19.684996,19.684994 0 0 1 1217.3842,810.23973 Z M 679.9098,1102.3331 A 19.684996,19.684994 0 0 1 699.60374,1122.0268 19.684996,19.684994 0 0 1 679.9098,1141.7007 19.684996,19.684994 0 0 1 660.23615,1122.0268 19.684996,19.684994 0 0 1 679.9098,1102.3331 Z M 279.92695,1102.354 A 19.684996,19.684994 0 0 1 299.60058,1122.048 19.684996,19.684994 0 0 1 279.92695,1141.7216 19.684996,19.684994 0 0 1 260.23299,1122.048 19.684996,19.684994 0 0 1 279.92695,1102.354 Z M 379.92266,1102.354 A 19.684996,19.684994 0 0 1 399.59629,1122.048 19.684996,19.684994 0 0 1 379.92266,1141.7216 19.684996,19.684994 0 0 1 360.22869,1122.048 19.684996,19.684994 0 0 1 379.92266,1102.354 Z M 479.91839,1102.354 A 19.684996,19.684994 0 0 1 499.61233,1122.048 19.684996,19.684994 0 0 1 479.91839,1141.7216 19.684996,19.684994 0 0 1 460.24473,1122.048 19.684996,19.684994 0 0 1 479.91839,1102.354 Z M 579.91408,1102.354 A 19.684996,19.684994 0 0 1 599.60805,1122.048 19.684996,19.684994 0 0 1 579.91408,1141.7216 19.684996,19.684994 0 0 1 560.24046,1122.048 19.684996,19.684994 0 0 1 579.91408,1102.354 Z M 779.92584,1102.354 A 19.684996,19.684994 0 0 1 799.59946,1122.048 19.684996,19.684994 0 0 1 779.92584,1141.7216 19.684996,19.684994 0 0 1 760.23187,1122.048 19.684996,19.684994 0 0 1 779.92584,1102.354 Z M 879.92157,1102.354 A 19.684996,19.684994 0 0 1 899.59519,1122.048 19.684996,19.684994 0 0 1 879.92157,1141.7216 19.684996,19.684994 0 0 1 860.22759,1122.048 19.684996,19.684994 0 0 1 879.92157,1102.354 Z M 979.91725,1102.354 A 19.684996,19.684994 0 0 1 999.61122,1122.048 19.684996,19.684994 0 0 1 979.91725,1141.7216 19.684996,19.684994 0 0 1 960.24363,1122.048 19.684996,19.684994 0 0 1 979.91725,1102.354 Z"
      stroke-miterlimit="4"
      opacity="1"
      fill="#e62c2e"
      fill-opacity="1"
      stroke="none"
      stroke-width="54.81040955"
      stroke-dasharray="none"
      stroke-opacity="0.78431373"
    />
    <text
      text-align="start"
      font-feature-settings="normal"
      font-variant-numeric="normal"
      font-variant-caps="normal"
      font-variant-ligatures="normal"
      font-size="59.05498505"
      font-stretch="normal"
      font-weight="normal"
      font-variant="normal"
      font-style="normal"
      id="text905"
      x="110.95531"
      y="452.46985"
      gorn="0.4.0"
      font-family="OCRA"
      writing-mode="lr-tb"
      text-anchor="start"
      fill="#ffffff"
      stroke-width="3.93699884">CLK</text>
    <text
      text-align="start"
      font-feature-settings="normal"
      font-variant-numeric="normal"
      font-variant-caps="normal"
      font-variant-ligatures="normal"
      font-size="59.05498505"
      font-stretch="normal"
      font-weight="normal"
      font-variant="normal"
      font-style="normal"
      id="text907"
      x="110.95531"
      y="552.44849"
      xml:space="preserve"
      gorn="0.4.1"
      font-family="OCRA"
      writing-mode="lr-tb"
      text-anchor="start"
      fill="#ffffff"
      stroke-width="3.93699884">CS</text>
    <text
      text-align="start"
      font-feature-settings="normal"
      font-variant-numeric="normal"
      font-variant-caps="normal"
      font-variant-ligatures="normal"
      font-size="59.05498505"
      font-stretch="normal"
      font-weight="normal"
      font-variant="normal"
      font-style="normal"
      id="text909"
      x="111.22656"
      y="652.45422"
      xml:space="preserve"
      gorn="0.4.2"
      font-family="OCRA"
      writing-mode="lr-tb"
      text-anchor="start"
      fill="#ffffff"
      stroke-width="3.93699884">DIN</text>
    <text
      text-align="start"
      font-feature-settings="normal"
      font-variant-numeric="normal"
      font-variant-caps="normal"
      font-variant-ligatures="normal"
      font-size="59.05498505"
      font-stretch="normal"
      font-weight="normal"
      font-variant="normal"
      font-style="normal"
      id="text911"
      x="111.22656"
      y="752.44977"
      xml:space="preserve"
      gorn="0.4.3"
      font-family="OCRA"
      writing-mode="lr-tb"
      text-anchor="start"
      fill="#ffffff"
      stroke-width="3.93699884">GND</text>
    <text
      text-align="start"
      font-feature-settings="normal"
      font-variant-numeric="normal"
      font-variant-caps="normal"
      font-variant-ligatures="normal"
      font-size="59.05498505"
      font-stretch="normal"
      font-weight="normal"
      font-variant="normal"
      font-style="normal"
      id="text913"
      x="111.02312"
      y="852.45557"
      xml:space="preserve"
      gorn="0.4.4"
      font-family="OCRA"
      writing-mode="lr-tb"
      text-anchor="start"
      fill="#ffffff"
      stroke-width="3.93699884">VCC</text>
    <text
      text-align="start"
      font-feature-settings="normal"
      font-variant-numeric="normal"
      font-variant-caps="normal"
      font-variant-ligatures="normal"
      font-size="59.05498505"
      font-stretch="normal"
      font-weight="normal"
      font-variant="normal"
      font-style="normal"
      id="text915"
      x="1022.0555"
      y="452.4621"
      xml:space="preserve"
      gorn="0.4.5"
      font-family="OCRA"
      writing-mode="lr-tb"
      text-anchor="start"
      fill="#ffffff"
      stroke-width="3.93699884">CLK</text>
    <text
      text-align="start"
      font-feature-settings="normal"
      font-variant-numeric="normal"
      font-variant-caps="normal"
      font-variant-ligatures="normal"
      font-size="59.05498505"
      font-stretch="normal"
      font-weight="normal"
      font-variant="normal"
      font-style="normal"
      id="text917"
      x="1063.9662"
      y="552.44073"
      xml:space="preserve"
      gorn="0.4.6"
      font-family="OCRA"
      writing-mode="lr-tb"
      text-anchor="start"
      fill="#ffffff"
      stroke-width="3.93699884">CS</text>
    <text
      text-align="start"
      font-feature-settings="normal"
      font-variant-numeric="normal"
      font-variant-caps="normal"
      font-variant-ligatures="normal"
      font-size="59.05498505"
      font-stretch="normal"
      font-weight="normal"
      font-variant="normal"
      font-style="normal"
      id="text919"
      x="980.28046"
      y="652.44647"
      xml:space="preserve"
      gorn="0.4.7"
      font-family="OCRA"
      writing-mode="lr-tb"
      text-anchor="start"
      fill="#ffffff"
      stroke-width="3.93699884">DOUT</text>
    <text
      text-align="start"
      font-feature-settings="normal"
      font-variant-numeric="normal"
      font-variant-caps="normal"
      font-variant-ligatures="normal"
      font-size="59.05498505"
      font-stretch="normal"
      font-weight="normal"
      font-variant="normal"
      font-style="normal"
      id="text921"
      x="1022.259"
      y="752.4425"
      xml:space="preserve"
      gorn="0.4.8"
      font-family="OCRA"
      writing-mode="lr-tb"
      text-anchor="start"
      fill="#ffffff"
      stroke-width="3.93699884">GND</text>
    <text
      text-align="start"
      font-feature-settings="normal"
      font-variant-numeric="normal"
      font-variant-caps="normal"
      font-variant-ligatures="normal"
      font-size="59.05498505"
      font-stretch="normal"
      font-weight="normal"
      font-variant="normal"
      font-style="normal"
      id="text923"
      x="1021.9199"
      y="852.4483"
      xml:space="preserve"
      gorn="0.4.9"
      font-family="OCRA"
      writing-mode="lr-tb"
      text-anchor="start"
      fill="#ffffff"
      stroke-width="3.93699884">VCC</text>
    <path
      stroke-miterlimit="4"
      display="inline"
      d="M 42.433966,400.38989 A 29.527494,29.52749 0 0 0 12.91336,429.9103 29.527494,29.52749 0 0 0 42.433966,459.45117 29.527494,29.52749 0 0 0 71.95457,429.9103 29.527494,29.52749 0 0 0 42.433966,400.38989 Z M 42.433966,410.23672 A 19.684996,19.684994 0 0 1 62.107588,429.9103 19.684996,19.684994 0 0 1 42.433966,449.60434 19.684996,19.684994 0 0 1 22.739998,429.9103 19.684996,19.684994 0 0 1 42.433966,410.23672 Z"
      id="connector0pin"
      gorn="0.5.0"
      opacity="1"
      fill="#9a916c"
      fill-opacity="1"
      stroke="none"
      stroke-width="55.69820786"
      stroke-dasharray="none"
      stroke-opacity="0.78431373"
    />
    <path
      stroke-miterlimit="4"
      display="inline"
      d="M 42.433966,500.38533 A 29.527494,29.52749 0 0 0 12.91336,529.9262 29.527494,29.52749 0 0 0 42.433966,559.447 29.527494,29.52749 0 0 0 71.95457,529.9262 29.527494,29.52749 0 0 0 42.433966,500.38533 Z M 42.433966,510.23255 A 19.684996,19.684994 0 0 1 62.107588,529.9262 19.684996,19.684994 0 0 1 42.433966,549.59978 19.684996,19.684994 0 0 1 22.739998,529.9262 19.684996,19.684994 0 0 1 42.433966,510.23255 Z"
      id="connector1pin"
      gorn="0.5.1"
      opacity="1"
      fill="#9a916c"
      fill-opacity="1"
      stroke="none"
      stroke-width="55.69820786"
      stroke-dasharray="none"
      stroke-opacity="0.78431373"
    />
    <path
      stroke-miterlimit="4"
      display="inline"
      d="M 42.433962,600.40163 A 29.527494,29.52749 0 0 0 12.913357,629.92204 29.527494,29.52749 0 0 0 42.433962,659.44283 29.527494,29.52749 0 0 0 71.954566,629.92204 29.527494,29.52749 0 0 0 42.433962,600.40163 Z M 42.433962,610.22799 A 19.684996,19.684994 0 0 1 62.107584,629.92204 19.684996,19.684994 0 0 1 42.433962,649.59561 19.684996,19.684994 0 0 1 22.739995,629.92204 19.684996,19.684994 0 0 1 42.433962,610.22799 Z"
      id="connector2pin"
      gorn="0.5.2"
      opacity="1"
      fill="#9a916c"
      fill-opacity="1"
      stroke="none"
      stroke-width="55.69820786"
      stroke-dasharray="none"
      stroke-opacity="0.78431373"
    />
    <path
      stroke-miterlimit="4"
      display="inline"
      d="M 42.454308,700.39707 A 29.527494,29.52749 0 0 0 12.913357,729.91787 29.527494,29.52749 0 0 0 42.454308,759.43827 29.527494,29.52749 0 0 0 71.974912,729.91787 29.527494,29.52749 0 0 0 42.454308,700.39707 Z M 42.454308,710.24429 A 19.684996,19.684994 0 0 1 62.12793,729.91787 19.684996,19.684994 0 0 1 42.454308,749.61152 19.684996,19.684994 0 0 1 22.76034,729.91787 19.684996,19.684994 0 0 1 42.454308,710.24429 Z"
      id="connector3pin"
      gorn="0.5.3"
      opacity="1"
      fill="#9a916c"
      fill-opacity="1"
      stroke="none"
      stroke-width="55.69820786"
      stroke-dasharray="none"
      stroke-opacity="0.78431373"
    />
    <path
      stroke-miterlimit="4"
      display="inline"
      d="M 42.433966,800.3929 A 29.527494,29.52749 0 0 0 12.91336,829.9133 29.527494,29.52749 0 0 0 42.433966,859.45457 29.527494,29.52749 0 0 0 71.95457,829.9133 29.527494,29.52749 0 0 0 42.433966,800.3929 Z M 42.433966,810.23973 A 19.684996,19.684994 0 0 1 62.107588,829.9133 19.684996,19.684994 0 0 1 42.433966,849.60735 19.684996,19.684994 0 0 1 22.739998,829.9133 19.684996,19.684994 0 0 1 42.433966,810.23973 Z"
      id="connector4pin"
      gorn="0.5.4"
      opacity="1"
      fill="#9a916c"
      fill-opacity="1"
      stroke="none"
      stroke-width="55.69820786"
      stroke-dasharray="none"
      stroke-opacity="0.78431373"
    />
    <path
      stroke-miterlimit="4"
      display="inline"
      d="M 1217.392,400.38202 A 29.527494,29.52749 0 0 0 1187.8714,429.90282 29.527494,29.52749 0 0 0 1217.392,459.44369 29.527494,29.52749 0 0 0 1246.9126,429.90282 29.527494,29.52749 0 0 0 1217.392,400.38202 Z M 1217.392,410.22924 A 19.684996,19.684994 0 0 1 1237.0656,429.90282 19.684996,19.684994 0 0 1 1217.392,449.59686 19.684996,19.684994 0 0 1 1197.698,429.90282 19.684996,19.684994 0 0 1 1217.392,410.22924 Z"
      id="connector5pin"
      gorn="0.5.5"
      opacity="1"
      fill="#9a916c"
      fill-opacity="1"
      stroke="none"
      stroke-width="55.69820786"
      stroke-dasharray="none"
      stroke-opacity="0.78431373"
    />
    <path
      stroke-miterlimit="4"
      display="inline"
      d="M 1217.392,500.37785 A 29.527494,29.52749 0 0 0 1187.8714,529.91872 29.527494,29.52749 0 0 0 1217.392,559.43952 29.527494,29.52749 0 0 0 1246.9126,529.91872 29.527494,29.52749 0 0 0 1217.392,500.37785 Z M 1217.392,510.22468 A 19.684996,19.684994 0 0 1 1237.0656,529.91872 19.684996,19.684994 0 0 1 1217.392,549.5923 19.684996,19.684994 0 0 1 1197.698,529.91872 19.684996,19.684994 0 0 1 1217.392,510.22468 Z"
      id="connector6pin"
      gorn="0.5.6"
      opacity="1"
      fill="#9a916c"
      fill-opacity="1"
      stroke="none"
      stroke-width="55.69820786"
      stroke-dasharray="none"
      stroke-opacity="0.78431373"
    />
    <path
      stroke-miterlimit="4"
      display="inline"
      d="M 1217.392,600.39376 A 29.527494,29.52749 0 0 0 1187.8714,629.91456 29.527494,29.52749 0 0 0 1217.392,659.43496 29.527494,29.52749 0 0 0 1246.9126,629.91456 29.527494,29.52749 0 0 0 1217.392,600.39376 Z M 1217.392,610.22051 A 19.684996,19.684994 0 0 1 1237.0656,629.91456 19.684996,19.684994 0 0 1 1217.392,649.58813 19.684996,19.684994 0 0 1 1197.698,629.91456 19.684996,19.684994 0 0 1 1217.392,610.22051 Z"
      id="connector7pin"
      gorn="0.5.7"
      opacity="1"
      fill="#9a916c"
      fill-opacity="1"
      stroke="none"
      stroke-width="55.69820786"
      stroke-dasharray="none"
      stroke-opacity="0.78431373"
    />
    <path
      stroke-miterlimit="4"
      display="inline"
      d="M 1217.392,700.38959 A 29.527494,29.52749 0 0 0 1187.851,729.90999 29.527494,29.52749 0 0 0 1217.392,759.43079 29.527494,29.52749 0 0 0 1246.9126,729.90999 29.527494,29.52749 0 0 0 1217.392,700.38959 Z M 1217.392,710.23642 A 19.684996,19.684994 0 0 1 1237.0656,729.90999 19.684996,19.684994 0 0 1 1217.392,749.60404 19.684996,19.684994 0 0 1 1197.698,729.90999 19.684996,19.684994 0 0 1 1217.392,710.23642 Z"
      id="connector8pin"
      gorn="0.5.8"
      opacity="1"
      fill="#9a916c"
      fill-opacity="1"
      stroke="none"
      stroke-width="55.69820786"
      stroke-dasharray="none"
      stroke-opacity="0.78431373"
    />
    <path
      stroke-miterlimit="4"
      display="inline"
      d="M 1217.392,800.38542 A 29.527494,29.52749 0 0 0 1187.8714,829.90582 29.527494,29.52749 0 0 0 1217.392,859.4467 29.527494,29.52749 0 0 0 1246.9126,829.90582 29.527494,29.52749 0 0 0 1217.392,800.38542 Z M 1217.392,810.23225 A 19.684996,19.684994 0 0 1 1237.0656,829.90582 19.684996,19.684994 0 0 1 1217.392,849.59987 19.684996,19.684994 0 0 1 1197.698,829.90582 19.684996,19.684994 0 0 1 1217.392,810.23225 Z"
      id="connector9pin"
      gorn="0.5.9"
      opacity="1"
      fill="#9a916c"
      fill-opacity="1"
      stroke="none"
      stroke-width="55.69820786"
      stroke-dasharray="none"
      stroke-opacity="0.78431373"
    />
    <path
      stroke-miterlimit="4"
      display="inline"
      d="M 279.92695,108.27612 A 29.527494,29.52749 0 0 0 250.386,137.79672 29.527494,29.52749 0 0 0 279.92695,167.31732 29.527494,29.52749 0 0 0 309.44756,137.79672 29.527494,29.52749 0 0 0 279.92695,108.27612 Z M 279.92695,118.10275 A 19.684996,19.684994 0 0 1 299.60058,137.79672 19.684996,19.684994 0 0 1 279.92695,157.47034 19.684996,19.684994 0 0 1 260.23299,137.79672 19.684996,19.684994 0 0 1 279.92695,118.10275 Z"
      id="matrix-pin-1"
      gorn="0.5.10"
      opacity="1"
      fill="#9a916c"
      fill-opacity="1"
      stroke="none"
      stroke-width="55.69820786"
      stroke-dasharray="none"
      stroke-opacity="0.78431373"
    />
    <path
      stroke-miterlimit="4"
      display="inline"
      d="M 379.92266,108.27612 A 29.527494,29.52749 0 0 0 350.40206,137.79672 29.527494,29.52749 0 0 0 379.92266,167.31732 29.527494,29.52749 0 0 0 409.44327,137.79672 29.527494,29.52749 0 0 0 379.92266,108.27612 Z M 379.92266,118.10275 A 19.684996,19.684994 0 0 1 399.59629,137.79672 19.684996,19.684994 0 0 1 379.92266,157.47034 19.684996,19.684994 0 0 1 360.22869,137.79672 19.684996,19.684994 0 0 1 379.92266,118.10275 Z"
      id="matrix-pin-2"
      gorn="0.5.11"
      opacity="1"
      fill="#9a916c"
      fill-opacity="1"
      stroke="none"
      stroke-width="55.69820786"
      stroke-dasharray="none"
      stroke-opacity="0.78431373"
    />
    <path
      stroke-miterlimit="4"
      display="inline"
      d="M 479.91839,108.27612 A 29.527494,29.52749 0 0 0 450.39775,137.79672 29.527494,29.52749 0 0 0 479.91839,167.31732 29.527494,29.52749 0 0 0 509.43896,137.79672 29.527494,29.52749 0 0 0 479.91839,108.27612 Z M 479.91839,118.10275 A 19.684996,19.684994 0 0 1 499.61233,137.79672 19.684996,19.684994 0 0 1 479.91839,157.47034 19.684996,19.684994 0 0 1 460.24473,137.79672 19.684996,19.684994 0 0 1 479.91839,118.10275 Z"
      id="matrix-pin-3"
      gorn="0.5.12"
      opacity="1"
      fill="#9a916c"
      fill-opacity="1"
      stroke="none"
      stroke-width="55.69820786"
      stroke-dasharray="none"
      stroke-opacity="0.78431373"
    />
    <path
      stroke-miterlimit="4"
      display="inline"
      d="M 579.91408,108.27612 A 29.527494,29.52749 0 0 0 550.39347,137.79672 29.527494,29.52749 0 0 0 579.91408,167.31732 29.527494,29.52749 0 0 0 609.45504,137.79672 29.527494,29.52749 0 0 0 579.91408,108.27612 Z M 579.91408,118.10275 A 19.684996,19.684994 0 0 1 599.60805,137.79672 19.684996,19.684994 0 0 1 579.91408,157.47034 19.684996,19.684994 0 0 1 560.24046,137.79672 19.684996,19.684994 0 0 1 579.91408,118.10275 Z"
      id="matrix-pin-4"
      gorn="0.5.13"
      opacity="1"
      fill="#9a916c"
      fill-opacity="1"
      stroke="none"
      stroke-width="55.69820786"
      stroke-dasharray="none"
      stroke-opacity="0.78431373"
    />
    <path
      stroke-miterlimit="4"
      display="inline"
      d="M 679.9098,108.23545 A 29.527494,29.52749 0 0 0 650.3892,137.77637 29.527494,29.52749 0 0 0 679.9098,167.29697 29.527494,29.52749 0 0 0 709.45076,137.77637 29.527494,29.52749 0 0 0 679.9098,108.23545 Z M 679.9098,118.08244 A 19.684996,19.684994 0 0 1 699.60374,137.77637 19.684996,19.684994 0 0 1 679.9098,157.44998 19.684996,19.684994 0 0 1 660.23615,137.77637 19.684996,19.684994 0 0 1 679.9098,118.08244 Z"
      id="matrix-pin-5"
      gorn="0.5.14"
      opacity="1"
      fill="#9a916c"
      fill-opacity="1"
      stroke="none"
      stroke-width="55.69820786"
      stroke-dasharray="none"
      stroke-opacity="0.78431373"
    />
    <path
      stroke-miterlimit="4"
      display="inline"
      d="M 779.92584,108.27612 A 29.527494,29.52749 0 0 0 750.38488,137.79672 29.527494,29.52749 0 0 0 779.92584,167.31732 29.527494,29.52749 0 0 0 809.44645,137.79672 29.527494,29.52749 0 0 0 779.92584,108.27612 Z M 779.92584,118.10275 A 19.684996,19.684994 0 0 1 799.59946,137.79672 19.684996,19.684994 0 0 1 779.92584,157.47034 19.684996,19.684994 0 0 1 760.23187,137.79672 19.684996,19.684994 0 0 1 779.92584,118.10275 Z"
      id="matrix-pin-6"
      gorn="0.5.15"
      opacity="1"
      fill="#9a916c"
      fill-opacity="1"
      stroke="none"
      stroke-width="55.69820786"
      stroke-dasharray="none"
      stroke-opacity="0.78431373"
    />
    <path
      stroke-miterlimit="4"
      display="inline"
      d="M 879.92157,108.27612 A 29.527494,29.52749 0 0 0 850.40096,137.79672 29.527494,29.52749 0 0 0 879.92157,167.31732 29.527494,29.52749 0 0 0 909.44217,137.79672 29.527494,29.52749 0 0 0 879.92157,108.27612 Z M 879.92157,118.10275 A 19.684996,19.684994 0 0 1 899.59519,137.79672 19.684996,19.684994 0 0 1 879.92157,157.47034 19.684996,19.684994 0 0 1 860.22759,137.79672 19.684996,19.684994 0 0 1 879.92157,118.10275 Z"
      id="matrix-pin-7"
      gorn="0.5.16"
      opacity="1"
      fill="#9a916c"
      fill-opacity="1"
      stroke="none"
      stroke-width="55.69820786"
      stroke-dasharray="none"
      stroke-opacity="0.78431373"
    />
    <path
      stroke-miterlimit="4"
      display="inline"
      d="M 979.91725,108.27612 A 29.527494,29.52749 0 0 0 950.39665,137.79672 29.527494,29.52749 0 0 0 979.91725,167.31732 29.527494,29.52749 0 0 0 1009.4379,137.79672 29.527494,29.52749 0 0 0 979.91725,108.27612 Z M 979.91725,118.10275 A 19.684996,19.684994 0 0 1 999.61122,137.79672 19.684996,19.684994 0 0 1 979.91725,157.47034 19.684996,19.684994 0 0 1 960.24363,137.79672 19.684996,19.684994 0 0 1 979.91725,118.10275 Z"
      id="matrix-pin-8"
      gorn="0.5.17"
      opacity="1"
      fill="#9a916c"
      fill-opacity="1"
      stroke="none"
      stroke-width="55.69820786"
      stroke-dasharray="none"
      stroke-opacity="0.78431373"
    />
    <path
      stroke-miterlimit="4"
      display="inline"
      d="M 279.9341,1092.5308 A 29.527494,29.52749 0 0 0 250.39314,1122.0516 29.527494,29.52749 0 0 0 279.9341,1151.572 29.527494,29.52749 0 0 0 309.4547,1122.0516 29.527494,29.52749 0 0 0 279.9341,1092.5308 Z M 279.9341,1102.3575 A 19.684996,19.684994 0 0 1 299.60772,1122.0516 19.684996,19.684994 0 0 1 279.9341,1141.7251 19.684996,19.684994 0 0 1 260.24013,1122.0516 19.684996,19.684994 0 0 1 279.9341,1102.3575 Z"
      id="matrix-pin-9"
      gorn="0.5.18"
      opacity="1"
      fill="#9a916c"
      fill-opacity="1"
      stroke="none"
      stroke-width="55.69820786"
      stroke-dasharray="none"
      stroke-opacity="0.78431373"
    />
    <path
      stroke-miterlimit="4"
      display="inline"
      d="M 379.92981,1092.5308 A 29.527494,29.52749 0 0 0 350.4092,1122.0516 29.527494,29.52749 0 0 0 379.92981,1151.572 29.527494,29.52749 0 0 0 409.4504,1122.0516 29.527494,29.52749 0 0 0 379.92981,1092.5308 Z M 379.92981,1102.3575 A 19.684996,19.684994 0 0 1 399.60341,1122.0516 19.684996,19.684994 0 0 1 379.92981,1141.7251 19.684996,19.684994 0 0 1 360.23584,1122.0516 19.684996,19.684994 0 0 1 379.92981,1102.3575 Z"
      id="matrix-pin-10"
      gorn="0.5.19"
      opacity="1"
      fill="#9a916c"
      fill-opacity="1"
      stroke="none"
      stroke-width="55.69820786"
      stroke-dasharray="none"
      stroke-opacity="0.78431373"
    />
    <path
      stroke-miterlimit="4"
      display="inline"
      d="M 479.92552,1092.5308 A 29.527494,29.52749 0 0 0 450.40491,1122.0516 29.527494,29.52749 0 0 0 479.92552,1151.572 29.527494,29.52749 0 0 0 509.44612,1122.0516 29.527494,29.52749 0 0 0 479.92552,1092.5308 Z M 479.92552,1102.3575 A 19.684996,19.684994 0 0 1 499.61949,1122.0516 19.684996,19.684994 0 0 1 479.92552,1141.7251 19.684996,19.684994 0 0 1 460.2519,1122.0516 19.684996,19.684994 0 0 1 479.92552,1102.3575 Z"
      id="matrix-pin-11"
      gorn="0.5.20"
      opacity="1"
      fill="#9a916c"
      fill-opacity="1"
      stroke="none"
      stroke-width="55.69820786"
      stroke-dasharray="none"
      stroke-opacity="0.78431373"
    />
    <path
      stroke-miterlimit="4"
      display="inline"
      d="M 579.92124,1092.5308 A 29.527494,29.52749 0 0 0 550.40064,1122.0516 29.527494,29.52749 0 0 0 579.92124,1151.572 29.527494,29.52749 0 0 0 609.46216,1122.0516 29.527494,29.52749 0 0 0 579.92124,1092.5308 Z M 579.92124,1102.3575 A 19.684996,19.684994 0 0 1 599.61518,1122.0516 19.684996,19.684994 0 0 1 579.92124,1141.7251 19.684996,19.684994 0 0 1 560.24759,1122.0516 19.684996,19.684994 0 0 1 579.92124,1102.3575 Z"
      id="matrix-pin-12"
      gorn="0.5.21"
      opacity="1"
      fill="#9a916c"
      fill-opacity="1"
      stroke="none"
      stroke-width="55.69820786"
      stroke-dasharray="none"
      stroke-opacity="0.78431373"
    />
    <path
      stroke-miterlimit="4"
      display="inline"
      d="M 679.91693,1092.4902 A 29.527494,29.52749 0 0 0 650.39632,1122.0311 29.527494,29.52749 0 0 0 679.91693,1151.5519 29.527494,29.52749 0 0 0 709.45789,1122.0311 29.527494,29.52749 0 0 0 679.91693,1092.4902 Z M 679.91693,1102.337 A 19.684996,19.684994 0 0 1 699.6109,1122.0311 19.684996,19.684994 0 0 1 679.91693,1141.7047 19.684996,19.684994 0 0 1 660.24331,1122.0311 19.684996,19.684994 0 0 1 679.91693,1102.337 Z"
      id="matrix-pin-13"
      gorn="0.5.22"
      opacity="1"
      fill="#9a916c"
      fill-opacity="1"
      stroke="none"
      stroke-width="55.69820786"
      stroke-dasharray="none"
      stroke-opacity="0.78431373"
    />
    <path
      stroke-miterlimit="4"
      display="inline"
      d="M 779.93301,1092.5308 A 29.527494,29.52749 0 0 0 750.39205,1122.0516 29.527494,29.52749 0 0 0 779.93301,1151.572 29.527494,29.52749 0 0 0 809.45361,1122.0516 29.527494,29.52749 0 0 0 779.93301,1092.5308 Z M 779.93301,1102.3575 A 19.684996,19.684994 0 0 1 799.60663,1122.0516 19.684996,19.684994 0 0 1 779.93301,1141.7251 19.684996,19.684994 0 0 1 760.23904,1122.0516 19.684996,19.684994 0 0 1 779.93301,1102.3575 Z"
      id="matrix-pin-14"
      gorn="0.5.23"
      opacity="1"
      fill="#9a916c"
      fill-opacity="1"
      stroke="none"
      stroke-width="55.69820786"
      stroke-dasharray="none"
      stroke-opacity="0.78431373"
    />
    <path
      stroke-miterlimit="4"
      display="inline"
      d="M 879.92869,1092.5308 A 29.527494,29.52749 0 0 0 850.40809,1122.0516 29.527494,29.52749 0 0 0 879.92869,1151.572 29.527494,29.52749 0 0 0 909.4493,1122.0516 29.527494,29.52749 0 0 0 879.92869,1092.5308 Z M 879.92869,1102.3575 A 19.684996,19.684994 0 0 1 899.60231,1122.0516 19.684996,19.684994 0 0 1 879.92869,1141.7251 19.684996,19.684994 0 0 1 860.23472,1122.0516 19.684996,19.684994 0 0 1 879.92869,1102.3575 Z"
      id="matrix-pin-15"
      gorn="0.5.24"
      opacity="1"
      fill="#9a916c"
      fill-opacity="1"
      stroke="none"
      stroke-width="55.69820786"
      stroke-dasharray="none"
      stroke-opacity="0.78431373"
    />
    <path
      stroke-miterlimit="4"
      display="inline"
      d="M 979.92442,1092.5308 A 29.527494,29.52749 0 0 0 950.40381,1122.0516 29.527494,29.52749 0 0 0 979.92442,1151.572 29.527494,29.52749 0 0 0 1009.445,1122.0516 29.527494,29.52749 0 0 0 979.92442,1092.5308 Z M 979.92442,1102.3575 A 19.684996,19.684994 0 0 1 999.61839,1122.0516 19.684996,19.684994 0 0 1 979.92442,1141.7251 19.684996,19.684994 0 0 1 960.2508,1122.0516 19.684996,19.684994 0 0 1 979.92442,1102.3575 Z"
      id="matrix-pin-16"
      gorn="0.5.25"
      opacity="1"
      fill="#9a916c"
      fill-opacity="1"
      stroke="none"
      stroke-width="55.69820786"
      stroke-dasharray="none"
      stroke-opacity="0.78431373"
    />
  </g>
</svg>
